<svg width="302" height="46" viewBox="0 0 302 46" fill="none" xmlns="http://www.w3.org/2000/svg">
<g clip-path="url(#clip0_637_106584)">
<path d="M0.5 6C0.5 2.96244 2.96243 0.5 6 0.5H213.5V45.5H6C2.96243 45.5 0.5 43.0376 0.5 40V6Z" fill="#2C3444"/>
<path d="M17.321 28V17.0909H23.9048V18.2628H18.642V21.9489H23.5639V23.1207H18.642V26.8281H23.9901V28H17.321ZM27.2725 23.0781V28H26.0154V19.8182H27.2299V21.0966H27.3364C27.5282 20.6811 27.8194 20.3473 28.21 20.0952C28.6006 19.8395 29.1049 19.7116 29.7228 19.7116C30.2768 19.7116 30.7615 19.8253 31.177 20.0526C31.5925 20.2763 31.9156 20.6172 32.1464 21.0753C32.3773 21.5298 32.4927 22.1051 32.4927 22.8011V28H31.2356V22.8864C31.2356 22.2436 31.0687 21.7429 30.7349 21.3842C30.4011 21.022 29.943 20.8409 29.3606 20.8409C28.9593 20.8409 28.6006 20.9279 28.2846 21.1019C27.9721 21.2759 27.7253 21.5298 27.5442 21.8636C27.3631 22.1974 27.2725 22.6023 27.2725 23.0781ZM38.2481 19.8182V20.8835H34.008V19.8182H38.2481ZM35.2438 17.858H36.5009V25.6562C36.5009 26.0114 36.5524 26.2777 36.6554 26.4553C36.7619 26.6293 36.8969 26.7464 37.0602 26.8068C37.2271 26.8636 37.4029 26.892 37.5876 26.892C37.726 26.892 37.8397 26.8849 37.9285 26.8707C38.0172 26.853 38.0883 26.8388 38.1415 26.8281L38.3972 27.9574C38.312 27.9893 38.193 28.0213 38.0403 28.0533C37.8876 28.0888 37.6941 28.1065 37.4597 28.1065C37.1046 28.1065 36.7566 28.0302 36.4157 27.8775C36.0783 27.7248 35.7978 27.4922 35.5741 27.1797C35.3539 26.8672 35.2438 26.473 35.2438 25.9972V17.858ZM43.3816 28.1705C42.5932 28.1705 41.9132 27.9964 41.3414 27.6484C40.7732 27.2969 40.3347 26.8068 40.0257 26.1783C39.7203 25.5462 39.5676 24.8111 39.5676 23.973C39.5676 23.1349 39.7203 22.3963 40.0257 21.7571C40.3347 21.1143 40.7644 20.6136 41.3148 20.255C41.8688 19.8928 42.5151 19.7116 43.2537 19.7116C43.6798 19.7116 44.1007 19.7827 44.5161 19.9247C44.9316 20.0668 45.3098 20.2976 45.6507 20.6172C45.9916 20.9332 46.2633 21.3523 46.4657 21.8743C46.6681 22.3963 46.7693 23.0391 46.7693 23.8026V24.3352H40.4625V23.2486H45.4909C45.4909 22.7869 45.3986 22.375 45.2139 22.0128C45.0328 21.6506 44.7736 21.3647 44.4362 21.1552C44.1024 20.9457 43.7083 20.8409 43.2537 20.8409C42.753 20.8409 42.3198 20.9652 41.954 21.2138C41.5918 21.4588 41.313 21.7784 41.1177 22.1726C40.9224 22.5668 40.8247 22.9893 40.8247 23.4403V24.1648C40.8247 24.7827 40.9313 25.3065 41.1443 25.7362C41.361 26.1623 41.661 26.4872 42.0445 26.7109C42.4281 26.9311 42.8737 27.0412 43.3816 27.0412C43.7118 27.0412 44.0101 26.995 44.2764 26.9027C44.5463 26.8068 44.7789 26.6648 44.9742 26.4766C45.1695 26.2848 45.3205 26.0469 45.427 25.7628L46.6415 26.1037C46.5137 26.5156 46.2988 26.8778 45.997 27.1903C45.6951 27.4993 45.3222 27.7408 44.8784 27.9148C44.4345 28.0852 43.9355 28.1705 43.3816 28.1705ZM48.5816 28V19.8182H49.7961V21.054H49.8813C50.0305 20.6491 50.3004 20.3207 50.691 20.0685C51.0816 19.8164 51.522 19.6903 52.012 19.6903C52.1044 19.6903 52.2198 19.6921 52.3583 19.6957C52.4968 19.6992 52.6015 19.7045 52.6725 19.7116V20.9901C52.6299 20.9794 52.5323 20.9634 52.3796 20.9421C52.2304 20.9173 52.0724 20.9048 51.9055 20.9048C51.5078 20.9048 51.1526 20.9883 50.8401 21.1552C50.5312 21.3185 50.2862 21.5458 50.1051 21.837C49.9275 22.1246 49.8387 22.4531 49.8387 22.8224V28H48.5816ZM61.6118 28.1705C60.8235 28.1705 60.1434 27.9964 59.5717 27.6484C59.0035 27.2969 58.565 26.8068 58.256 26.1783C57.9506 25.5462 57.7979 24.8111 57.7979 23.973C57.7979 23.1349 57.9506 22.3963 58.256 21.7571C58.565 21.1143 58.9946 20.6136 59.5451 20.255C60.099 19.8928 60.7453 19.7116 61.484 19.7116C61.9101 19.7116 62.3309 19.7827 62.7464 19.9247C63.1619 20.0668 63.5401 20.2976 63.881 20.6172C64.2219 20.9332 64.4936 21.3523 64.696 21.8743C64.8984 22.3963 64.9996 23.0391 64.9996 23.8026V24.3352H58.6928V23.2486H63.7212C63.7212 22.7869 63.6289 22.375 63.4442 22.0128C63.2631 21.6506 63.0039 21.3647 62.6665 21.1552C62.3327 20.9457 61.9385 20.8409 61.484 20.8409C60.9833 20.8409 60.55 20.9652 60.1843 21.2138C59.8221 21.4588 59.5433 21.7784 59.348 22.1726C59.1527 22.5668 59.055 22.9893 59.055 23.4403V24.1648C59.055 24.7827 59.1615 25.3065 59.3746 25.7362C59.5912 26.1623 59.8913 26.4872 60.2748 26.7109C60.6583 26.9311 61.104 27.0412 61.6118 27.0412C61.9421 27.0412 62.2404 26.995 62.5067 26.9027C62.7766 26.8068 63.0092 26.6648 63.2045 26.4766C63.3998 26.2848 63.5507 26.0469 63.6573 25.7628L64.8718 26.1037C64.7439 26.5156 64.5291 26.8778 64.2272 27.1903C63.9254 27.4993 63.5525 27.7408 63.1086 27.9148C62.6647 28.0852 62.1658 28.1705 61.6118 28.1705ZM66.8119 28V19.8182H68.0264V21.0966H68.1329C68.3034 20.6598 68.5786 20.3207 68.9586 20.0792C69.3385 19.8342 69.7949 19.7116 70.3275 19.7116C70.8673 19.7116 71.3165 19.8342 71.6752 20.0792C72.0374 20.3207 72.3197 20.6598 72.5221 21.0966H72.6074C72.8169 20.674 73.1311 20.3384 73.5502 20.0898C73.9692 19.8377 74.4717 19.7116 75.0576 19.7116C75.7892 19.7116 76.3875 19.9407 76.8527 20.3988C77.3179 20.8533 77.5505 21.5618 77.5505 22.5241V28H76.2934V22.5241C76.2934 21.9205 76.1283 21.489 75.798 21.2298C75.4678 20.9705 75.0789 20.8409 74.6315 20.8409C74.0562 20.8409 73.6105 21.0149 73.2945 21.3629C72.9784 21.7074 72.8204 22.1442 72.8204 22.6733V28H71.542V22.3963C71.542 21.9311 71.3911 21.5565 71.0892 21.2724C70.7874 20.9847 70.3985 20.8409 69.9227 20.8409C69.596 20.8409 69.2906 20.9279 69.0065 21.1019C68.726 21.2759 68.4987 21.5174 68.3247 21.8263C68.1542 22.1317 68.069 22.4851 68.069 22.8864V28H66.8119ZM82.1567 28.1918C81.6382 28.1918 81.1677 28.0941 80.7451 27.8988C80.3225 27.6999 79.9869 27.4141 79.7384 27.0412C79.4898 26.6648 79.3655 26.2102 79.3655 25.6776C79.3655 25.2088 79.4578 24.8288 79.6425 24.5376C79.8271 24.2429 80.0739 24.0121 80.3829 23.8452C80.6918 23.6783 81.0327 23.554 81.4056 23.4723C81.782 23.3871 82.1602 23.3196 82.5402 23.2699C83.0374 23.206 83.4404 23.158 83.7494 23.1261C84.0619 23.0906 84.2891 23.032 84.4312 22.9503C84.5768 22.8686 84.6496 22.7266 84.6496 22.5241V22.4815C84.6496 21.956 84.5058 21.5476 84.2181 21.2564C83.934 20.9652 83.5026 20.8196 82.9237 20.8196C82.3236 20.8196 81.8531 20.951 81.5121 21.2138C81.1712 21.4766 80.9315 21.7571 80.793 22.0554L79.5999 21.6293C79.8129 21.1321 80.097 20.745 80.4521 20.468C80.8108 20.1875 81.2014 19.9922 81.624 19.8821C82.0501 19.7685 82.4692 19.7116 82.8811 19.7116C83.1439 19.7116 83.4457 19.7436 83.7866 19.8075C84.1311 19.8679 84.4631 19.994 84.7827 20.1857C85.1059 20.3775 85.374 20.6669 85.5871 21.054C85.8001 21.4411 85.9067 21.9595 85.9067 22.6094V28H84.6496V26.892H84.5857C84.5004 27.0696 84.3584 27.2596 84.1595 27.462C83.9607 27.6644 83.6961 27.8366 83.3658 27.9787C83.0356 28.1207 82.6325 28.1918 82.1567 28.1918ZM82.3484 27.0625C82.8456 27.0625 83.2646 26.9648 83.6055 26.7695C83.95 26.5742 84.2092 26.3221 84.3832 26.0131C84.5608 25.7042 84.6496 25.3793 84.6496 25.0384V23.8878C84.5963 23.9517 84.4791 24.0103 84.298 24.0636C84.1205 24.1133 83.9145 24.1577 83.6801 24.1967C83.4493 24.2322 83.2238 24.2642 83.0036 24.2926C82.787 24.3175 82.6112 24.3388 82.4763 24.3565C82.1496 24.3991 81.8442 24.4684 81.5601 24.5643C81.2795 24.6566 81.0523 24.7969 80.8783 24.9851C80.7078 25.1697 80.6226 25.4219 80.6226 25.7415C80.6226 26.1783 80.7842 26.5085 81.1073 26.7322C81.434 26.9524 81.8477 27.0625 82.3484 27.0625ZM88.1012 28V19.8182H89.3583V28H88.1012ZM88.7404 18.4545C88.4953 18.4545 88.284 18.3711 88.1065 18.2042C87.9325 18.0373 87.8455 17.8366 87.8455 17.6023C87.8455 17.3679 87.9325 17.1673 88.1065 17.0004C88.284 16.8335 88.4953 16.75 88.7404 16.75C88.9854 16.75 89.1949 16.8335 89.3689 17.0004C89.5465 17.1673 89.6352 17.3679 89.6352 17.6023C89.6352 17.8366 89.5465 18.0373 89.3689 18.2042C89.1949 18.3711 88.9854 18.4545 88.7404 18.4545ZM92.8178 17.0909V28H91.5607V17.0909H92.8178ZM95.9365 28.0852C95.6737 28.0852 95.4482 27.9911 95.26 27.8029C95.0718 27.6147 94.9777 27.3892 94.9777 27.1264C94.9777 26.8636 95.0718 26.6381 95.26 26.4499C95.4482 26.2617 95.6737 26.1676 95.9365 26.1676C96.1993 26.1676 96.4248 26.2617 96.613 26.4499C96.8012 26.6381 96.8953 26.8636 96.8953 27.1264C96.8953 27.3004 96.8509 27.4602 96.7621 27.6058C96.6769 27.7514 96.5615 27.8686 96.4159 27.9574C96.2738 28.0426 96.114 28.0852 95.9365 28.0852ZM99.9674 28.0852C99.7046 28.0852 99.4791 27.9911 99.2909 27.8029C99.1026 27.6147 99.0085 27.3892 99.0085 27.1264C99.0085 26.8636 99.1026 26.6381 99.2909 26.4499C99.4791 26.2617 99.7046 26.1676 99.9674 26.1676C100.23 26.1676 100.456 26.2617 100.644 26.4499C100.832 26.6381 100.926 26.8636 100.926 27.1264C100.926 27.3004 100.882 27.4602 100.793 27.6058C100.708 27.7514 100.592 27.8686 100.447 27.9574C100.305 28.0426 100.145 28.0852 99.9674 28.0852ZM103.998 28.0852C103.735 28.0852 103.51 27.9911 103.322 27.8029C103.134 27.6147 103.039 27.3892 103.039 27.1264C103.039 26.8636 103.134 26.6381 103.322 26.4499C103.51 26.2617 103.735 26.1676 103.998 26.1676C104.261 26.1676 104.486 26.2617 104.675 26.4499C104.863 26.6381 104.957 26.8636 104.957 27.1264C104.957 27.3004 104.913 27.4602 104.824 27.6058C104.739 27.7514 104.623 27.8686 104.478 27.9574C104.336 28.0426 104.176 28.0852 103.998 28.0852ZM108.029 28.0852C107.766 28.0852 107.541 27.9911 107.353 27.8029C107.164 27.6147 107.07 27.3892 107.07 27.1264C107.07 26.8636 107.164 26.6381 107.353 26.4499C107.541 26.2617 107.766 26.1676 108.029 26.1676C108.292 26.1676 108.517 26.2617 108.706 26.4499C108.894 26.6381 108.988 26.8636 108.988 27.1264C108.988 27.3004 108.943 27.4602 108.855 27.6058C108.769 27.7514 108.654 27.8686 108.508 27.9574C108.366 28.0426 108.207 28.0852 108.029 28.0852Z" fill="#A5ACBA"/>
<path d="M0.5 6C0.5 2.96244 2.96243 0.5 6 0.5H213.5V45.5H6C2.96243 45.5 0.5 43.0376 0.5 40V6Z" stroke="#2E3545"/>
<path d="M214 0H296C299.314 0 302 2.68629 302 6V40C302 43.3137 299.314 46 296 46H214V0Z" fill="#437EF7"/>
<path d="M239.005 20.0898C238.955 19.6246 238.745 19.2624 238.376 19.0032C238.01 18.744 237.534 18.6143 236.949 18.6143C236.537 18.6143 236.183 18.6765 235.888 18.8008C235.594 18.9251 235.368 19.0937 235.212 19.3068C235.056 19.5199 234.976 19.7631 234.972 20.0366C234.972 20.2638 235.024 20.4609 235.127 20.6278C235.233 20.7947 235.377 20.9368 235.558 21.054C235.739 21.1676 235.94 21.2635 236.16 21.3416C236.38 21.4197 236.602 21.4854 236.826 21.5387L237.849 21.7944C238.261 21.8903 238.657 22.0199 239.037 22.1832C239.42 22.3466 239.763 22.5526 240.065 22.8011C240.37 23.0497 240.612 23.3498 240.789 23.7013C240.967 24.0529 241.055 24.4648 241.055 24.9371C241.055 25.5763 240.892 26.1392 240.565 26.6257C240.239 27.1087 239.766 27.4869 239.148 27.7603C238.534 28.0302 237.79 28.1651 236.917 28.1651C236.068 28.1651 235.331 28.0337 234.706 27.771C234.085 27.5082 233.598 27.1246 233.246 26.6204C232.898 26.1161 232.71 25.5018 232.682 24.7773H234.626C234.654 25.1573 234.772 25.4734 234.978 25.7255C235.184 25.9776 235.452 26.1658 235.782 26.2901C236.116 26.4144 236.489 26.4766 236.901 26.4766C237.33 26.4766 237.707 26.4126 238.03 26.2848C238.357 26.1534 238.612 25.9723 238.797 25.7415C238.982 25.5071 239.076 25.2337 239.079 24.9212C239.076 24.6371 238.992 24.4027 238.829 24.218C238.665 24.0298 238.436 23.8736 238.142 23.7493C237.85 23.6214 237.51 23.5078 237.119 23.4084L235.878 23.0888C234.979 22.858 234.269 22.5082 233.747 22.0394C233.229 21.5671 232.969 20.9403 232.969 20.1591C232.969 19.5163 233.143 18.9535 233.491 18.4705C233.843 17.9876 234.321 17.6129 234.924 17.3466C235.528 17.0767 236.212 16.9418 236.975 16.9418C237.749 16.9418 238.428 17.0767 239.01 17.3466C239.596 17.6129 240.056 17.984 240.39 18.4599C240.723 18.9322 240.896 19.4755 240.906 20.0898H239.005ZM247.947 24.5589V19.8182H249.875V28H248.005V26.5458H247.92C247.736 27.0039 247.432 27.3786 247.009 27.6697C246.59 27.9609 246.074 28.1065 245.459 28.1065C244.923 28.1065 244.449 27.9876 244.037 27.7496C243.629 27.5082 243.309 27.1584 243.078 26.7003C242.847 26.2386 242.732 25.6811 242.732 25.0277V19.8182H244.66V24.7294C244.66 25.2479 244.802 25.6598 245.086 25.9652C245.37 26.2706 245.743 26.4233 246.205 26.4233C246.489 26.4233 246.764 26.354 247.031 26.2156C247.297 26.0771 247.515 25.8711 247.686 25.5977C247.86 25.3207 247.947 24.9744 247.947 24.5589ZM251.943 28V17.0909H253.871V21.1712H253.951C254.051 20.9723 254.191 20.761 254.372 20.5373C254.553 20.31 254.798 20.1165 255.107 19.9567C255.416 19.7933 255.81 19.7116 256.29 19.7116C256.922 19.7116 257.492 19.8732 258 20.1964C258.511 20.516 258.916 20.9901 259.214 21.6186C259.516 22.2436 259.667 23.0107 259.667 23.9197C259.667 24.8182 259.52 25.5817 259.225 26.2102C258.93 26.8388 258.529 27.3182 258.021 27.6484C257.513 27.9787 256.938 28.1438 256.295 28.1438C255.826 28.1438 255.438 28.0657 255.129 27.9094C254.82 27.7532 254.571 27.565 254.383 27.3448C254.198 27.1211 254.054 26.9098 253.951 26.7109H253.839V28H251.943ZM253.834 23.9091C253.834 24.4382 253.909 24.9016 254.058 25.2994C254.211 25.6971 254.429 26.0078 254.713 26.2315C255.001 26.4517 255.349 26.5618 255.757 26.5618C256.183 26.5618 256.54 26.4482 256.828 26.2209C257.115 25.9901 257.332 25.6758 257.478 25.2781C257.627 24.8768 257.701 24.4205 257.701 23.9091C257.701 23.4013 257.629 22.9503 257.483 22.5561C257.337 22.1619 257.121 21.853 256.833 21.6293C256.545 21.4055 256.187 21.2937 255.757 21.2937C255.345 21.2937 254.995 21.402 254.708 21.6186C254.42 21.8352 254.202 22.1388 254.053 22.5295C253.907 22.9201 253.834 23.38 253.834 23.9091ZM261.306 28V19.8182H263.149V21.2085H263.245C263.416 20.7397 263.698 20.3739 264.092 20.1112C264.486 19.8448 264.957 19.7116 265.504 19.7116C266.058 19.7116 266.525 19.8466 266.905 20.1165C267.288 20.3828 267.558 20.7468 267.714 21.2085H267.799C267.981 20.7539 268.286 20.3917 268.716 20.1218C269.149 19.8484 269.662 19.7116 270.255 19.7116C271.008 19.7116 271.622 19.9496 272.098 20.4254C272.574 20.9013 272.812 21.5955 272.812 22.5082V28H270.878V22.8065C270.878 22.2987 270.743 21.9276 270.473 21.6932C270.204 21.4553 269.873 21.3363 269.483 21.3363C269.017 21.3363 268.653 21.4819 268.391 21.7731C268.131 22.0607 268.002 22.4354 268.002 22.897V28H266.111V22.7266C266.111 22.304 265.983 21.9666 265.727 21.7145C265.475 21.4624 265.145 21.3363 264.737 21.3363C264.46 21.3363 264.207 21.4073 263.98 21.5494C263.753 21.6879 263.572 21.8849 263.437 22.1406C263.302 22.3928 263.234 22.6875 263.234 23.0249V28H261.306ZM274.768 28V19.8182H276.696V28H274.768ZM275.738 18.657C275.432 18.657 275.169 18.5558 274.949 18.3533C274.729 18.1474 274.619 17.9006 274.619 17.6129C274.619 17.3217 274.729 17.0749 274.949 16.8725C275.169 16.6665 275.432 16.5636 275.738 16.5636C276.047 16.5636 276.309 16.6665 276.526 16.8725C276.746 17.0749 276.856 17.3217 276.856 17.6129C276.856 17.9006 276.746 18.1474 276.526 18.3533C276.309 18.5558 276.047 18.657 275.738 18.657ZM282.765 19.8182V21.3097H278.061V19.8182H282.765ZM279.223 17.858H281.151V25.5391C281.151 25.7983 281.19 25.9972 281.268 26.1357C281.35 26.2706 281.456 26.3629 281.588 26.4126C281.719 26.4624 281.865 26.4872 282.024 26.4872C282.145 26.4872 282.255 26.4783 282.355 26.4606C282.458 26.4428 282.536 26.4268 282.589 26.4126L282.914 27.9201C282.811 27.9556 282.664 27.9947 282.472 28.0373C282.284 28.0799 282.053 28.1048 281.779 28.1119C281.296 28.1261 280.861 28.0533 280.474 27.8935C280.087 27.7301 279.78 27.478 279.553 27.1371C279.329 26.7962 279.219 26.37 279.223 25.8587V17.858Z" fill="white"/>
</g>
<defs>
<clipPath id="clip0_637_106584">
<rect width="302" height="46" rx="6" fill="white"/>
</clipPath>
</defs>
</svg>
